<svg xmlns="http://www.w3.org/2000/svg" width="56" height="56" viewBox="0 0 56 56" fill="none">
  <!-- Bulb shape -->
  <path d="M28 8c-8 0-14 6-14 14 0 5 3 9 6 12v4c0 2 2 3 4 3h8c2 0 4-1 4-3v-4c3-3 6-7 6-12 0-8-6-14-14-14z" stroke="#d4af37" stroke-opacity="0.75" stroke-width="2.2" stroke-linecap="round" stroke-linejoin="round" fill="none"/>
  <!-- Base lines -->
  <path d="M22 45h12" stroke="#d4af37" stroke-opacity="0.7" stroke-width="2" stroke-linecap="round"/>
  <path d="M24 49h8" stroke="#d4af37" stroke-opacity="0.6" stroke-width="2" stroke-linecap="round"/>
  <!-- Rays of inspiration -->
  <path d="M28 2v3" stroke="#0b4fbf" stroke-opacity="0.5" stroke-width="2" stroke-linecap="round"/>
  <path d="M10 10l2 2" stroke="#0b4fbf" stroke-opacity="0.45" stroke-width="2" stroke-linecap="round"/>
  <path d="M46 10l-2 2" stroke="#0b4fbf" stroke-opacity="0.45" stroke-width="2" stroke-linecap="round"/>
  <path d="M4 22h3" stroke="#0b4fbf" stroke-opacity="0.45" stroke-width="2" stroke-linecap="round"/>
  <path d="M49 22h3" stroke="#0b4fbf" stroke-opacity="0.45" stroke-width="2" stroke-linecap="round"/>
  <!-- Accent dots -->
  <circle cx="48" cy="6" r="1.5" fill="#d4af37" fill-opacity="0.55"/>
  <circle cx="8" cy="6" r="1.4" fill="#0b4fbf" fill-opacity="0.45"/>
</svg>
